<?xml version="1.0" encoding="iso-8859-1"?>
<!-- Generator: Adobe Illustrator 19.0.0, SVG Export Plug-In . SVG Version: 6.00 Build 0)  -->
<svg version="1.1" id="Layer_1" xmlns="http://www.w3.org/2000/svg" xmlns:xlink="http://www.w3.org/1999/xlink" x="0px" y="0px"
	 viewBox="0 0 512 512" style="enable-background:new 0 0 512 512;" xml:space="preserve">
<path style="fill:#FDC794;" d="M291.31,459.09c19.421,0,35.31-15.89,35.31-35.31c0-19.421-15.89-35.31-35.31-35.31h44.138
	c19.421,0,35.31-15.89,35.31-35.31c0-19.421-15.89-35.31-35.31-35.31h35.31c19.421,0,35.31-15.89,35.31-35.31
	s-15.89-35.31-35.31-35.31h-35.31H476.69c19.421,0,35.31-15.89,35.31-35.31s-15.89-35.31-35.31-35.31H247.172l23.834-15.89
	c30.897-17.655,45.021-60.028,34.428-88.276c-0.883-4.414-3.531-7.062-5.297-10.593c-7.062-10.593-15.007-8.828-17.655-8.828
	s-53.848,50.317-105.931,79.448c0,0-42.372,25.6-70.621,52.966H79.448C35.31,185.434,0,220.745,0,264.883v88.276
	c0,34.428,29.131,69.738,62.676,77.683c7.945,1.766,19.421,5.297,25.6,10.593c8.828,7.945,30.897,17.655,61.793,17.655H291.31z"/>
<g>
	<path style="fill:#F9A671;" d="M220.69,185.434c0-3.531,1.766-6.179,5.297-7.945l17.655-8.828c4.414-1.766,9.71,0,11.476,3.531
		c1.766,4.414,0,9.71-3.531,11.476l-17.655,8.828c-4.414,1.766-9.71,0-11.476-3.531C220.69,188.083,220.69,187.2,220.69,185.434"/>
	<path style="fill:#F9A671;" d="M220.69,247.228c0-5.297,3.531-8.828,8.828-8.828h150.069c5.297,0,8.828,3.531,8.828,8.828
		s-3.531,8.828-8.828,8.828H229.517C224.221,256.055,220.69,252.524,220.69,247.228"/>
	<path style="fill:#F9A671;" d="M229.517,317.848c0-5.297,3.531-8.828,8.828-8.828h97.103c5.297,0,8.828,3.531,8.828,8.828
		c0,5.297-3.531,8.828-8.828,8.828h-97.103C233.048,326.676,229.517,323.145,229.517,317.848"/>
	<path style="fill:#F9A671;" d="M220.69,388.469c0-5.297,3.531-8.828,8.828-8.828h61.793c5.297,0,8.828,3.531,8.828,8.828
		s-3.531,8.828-8.828,8.828h-61.793C224.221,397.297,220.69,393.766,220.69,388.469"/>
	<path style="fill:#F9A671;" d="M70.621,397.297c0-3.531,2.648-7.945,6.179-8.828c4.414-0.883,9.71,1.766,10.593,6.179l0.883,5.297
		c5.297,19.421,7.945,30.014,19.421,33.545c4.414,1.766,7.062,6.179,5.297,11.476c-1.766,4.414-6.179,7.062-11.476,5.297
		c-21.186-7.062-25.6-26.483-30.897-45.903v-4.414C70.621,399.062,70.621,398.179,70.621,397.297"/>
	<path style="fill:#F9A671;" d="M70.621,229.572c0-1.766,0.883-3.531,1.766-5.297c4.414-5.297,7.945-9.71,11.476-15.007
		c4.414-7.062,9.71-13.241,15.89-20.303c3.531-3.531,8.828-3.531,12.359-0.883c3.531,3.531,3.531,8.828,0.883,12.359
		c-5.297,6.179-9.71,12.359-14.124,18.538c-3.531,5.297-7.062,10.593-12.359,16.772c-3.531,3.531-8.828,4.414-12.359,0.883
		C71.503,234.869,70.621,232.221,70.621,229.572"/>
</g>
<g>
</g>
<g>
</g>
<g>
</g>
<g>
</g>
<g>
</g>
<g>
</g>
<g>
</g>
<g>
</g>
<g>
</g>
<g>
</g>
<g>
</g>
<g>
</g>
<g>
</g>
<g>
</g>
<g>
</g>
</svg>
