<?xml version="1.0" encoding="utf-8"?>
<!DOCTYPE svg PUBLIC "-//W3C//DTD SVG 20010904//EN" "http://www.w3.org/TR/2001/REC-SVG-20010904/DTD/svg10.dtd">
<svg xmlns="http://www.w3.org/2000/svg" xml:space="preserve" xmlns:xlink="http://www.w3.org/1999/xlink" width="924" height="924" viewBox="0 0 924 924">
<desc></desc>
<rect width="924" height="924" fill="#ffffff" cx="0" cy="0" />
<defs>
<rect id="p" width="28" height="28" />
<circle id="circle" r="14" stroke-width="0" fill="000000" />
<rect id="hor" width="28" height="6" />
<rect id="ver" width="6" height="28" />
<polygon id="3d1" points="0,0 28,0 0,28" stroke-width="0" fill="000000" />
<polygon id="3d2" points="0,28 28,0 28,28" stroke-width="0" fill="#808080" />
</defs>
<g fill="#000000">
<use x="56" y="56" xlink:href="#p" />
<use x="84" y="56" xlink:href="#p" />
<use x="112" y="56" xlink:href="#p" />
<use x="140" y="56" xlink:href="#p" />
<use x="168" y="56" xlink:href="#p" />
<use x="196" y="56" xlink:href="#p" />
<use x="224" y="56" xlink:href="#p" />
<use x="280" y="56" xlink:href="#p" />
<use x="308" y="56" xlink:href="#p" />
<use x="336" y="56" xlink:href="#p" />
<use x="420" y="56" xlink:href="#p" />
<use x="448" y="56" xlink:href="#p" />
<use x="504" y="56" xlink:href="#p" />
<use x="532" y="56" xlink:href="#p" />
<use x="560" y="56" xlink:href="#p" />
<use x="672" y="56" xlink:href="#p" />
<use x="700" y="56" xlink:href="#p" />
<use x="728" y="56" xlink:href="#p" />
<use x="756" y="56" xlink:href="#p" />
<use x="784" y="56" xlink:href="#p" />
<use x="812" y="56" xlink:href="#p" />
<use x="840" y="56" xlink:href="#p" />
<use x="56" y="84" xlink:href="#p" />
<use x="224" y="84" xlink:href="#p" />
<use x="280" y="84" xlink:href="#p" />
<use x="364" y="84" xlink:href="#p" />
<use x="420" y="84" xlink:href="#p" />
<use x="504" y="84" xlink:href="#p" />
<use x="532" y="84" xlink:href="#p" />
<use x="672" y="84" xlink:href="#p" />
<use x="840" y="84" xlink:href="#p" />
<use x="56" y="112" xlink:href="#p" />
<use x="112" y="112" xlink:href="#p" />
<use x="140" y="112" xlink:href="#p" />
<use x="168" y="112" xlink:href="#p" />
<use x="224" y="112" xlink:href="#p" />
<use x="280" y="112" xlink:href="#p" />
<use x="308" y="112" xlink:href="#p" />
<use x="336" y="112" xlink:href="#p" />
<use x="392" y="112" xlink:href="#p" />
<use x="420" y="112" xlink:href="#p" />
<use x="448" y="112" xlink:href="#p" />
<use x="476" y="112" xlink:href="#p" />
<use x="504" y="112" xlink:href="#p" />
<use x="560" y="112" xlink:href="#p" />
<use x="672" y="112" xlink:href="#p" />
<use x="728" y="112" xlink:href="#p" />
<use x="756" y="112" xlink:href="#p" />
<use x="784" y="112" xlink:href="#p" />
<use x="840" y="112" xlink:href="#p" />
<use x="56" y="140" xlink:href="#p" />
<use x="112" y="140" xlink:href="#p" />
<use x="140" y="140" xlink:href="#p" />
<use x="168" y="140" xlink:href="#p" />
<use x="224" y="140" xlink:href="#p" />
<use x="448" y="140" xlink:href="#p" />
<use x="532" y="140" xlink:href="#p" />
<use x="672" y="140" xlink:href="#p" />
<use x="728" y="140" xlink:href="#p" />
<use x="756" y="140" xlink:href="#p" />
<use x="784" y="140" xlink:href="#p" />
<use x="840" y="140" xlink:href="#p" />
<use x="56" y="168" xlink:href="#p" />
<use x="112" y="168" xlink:href="#p" />
<use x="140" y="168" xlink:href="#p" />
<use x="168" y="168" xlink:href="#p" />
<use x="224" y="168" xlink:href="#p" />
<use x="392" y="168" xlink:href="#p" />
<use x="476" y="168" xlink:href="#p" />
<use x="532" y="168" xlink:href="#p" />
<use x="560" y="168" xlink:href="#p" />
<use x="588" y="168" xlink:href="#p" />
<use x="672" y="168" xlink:href="#p" />
<use x="728" y="168" xlink:href="#p" />
<use x="756" y="168" xlink:href="#p" />
<use x="784" y="168" xlink:href="#p" />
<use x="840" y="168" xlink:href="#p" />
<use x="56" y="196" xlink:href="#p" />
<use x="224" y="196" xlink:href="#p" />
<use x="280" y="196" xlink:href="#p" />
<use x="308" y="196" xlink:href="#p" />
<use x="336" y="196" xlink:href="#p" />
<use x="364" y="196" xlink:href="#p" />
<use x="504" y="196" xlink:href="#p" />
<use x="532" y="196" xlink:href="#p" />
<use x="616" y="196" xlink:href="#p" />
<use x="672" y="196" xlink:href="#p" />
<use x="840" y="196" xlink:href="#p" />
<use x="56" y="224" xlink:href="#p" />
<use x="84" y="224" xlink:href="#p" />
<use x="112" y="224" xlink:href="#p" />
<use x="140" y="224" xlink:href="#p" />
<use x="168" y="224" xlink:href="#p" />
<use x="196" y="224" xlink:href="#p" />
<use x="224" y="224" xlink:href="#p" />
<use x="280" y="224" xlink:href="#p" />
<use x="336" y="224" xlink:href="#p" />
<use x="392" y="224" xlink:href="#p" />
<use x="448" y="224" xlink:href="#p" />
<use x="504" y="224" xlink:href="#p" />
<use x="560" y="224" xlink:href="#p" />
<use x="616" y="224" xlink:href="#p" />
<use x="672" y="224" xlink:href="#p" />
<use x="700" y="224" xlink:href="#p" />
<use x="728" y="224" xlink:href="#p" />
<use x="756" y="224" xlink:href="#p" />
<use x="784" y="224" xlink:href="#p" />
<use x="812" y="224" xlink:href="#p" />
<use x="840" y="224" xlink:href="#p" />
<use x="280" y="252" xlink:href="#p" />
<use x="336" y="252" xlink:href="#p" />
<use x="364" y="252" xlink:href="#p" />
<use x="392" y="252" xlink:href="#p" />
<use x="448" y="252" xlink:href="#p" />
<use x="476" y="252" xlink:href="#p" />
<use x="504" y="252" xlink:href="#p" />
<use x="532" y="252" xlink:href="#p" />
<use x="560" y="252" xlink:href="#p" />
<use x="112" y="280" xlink:href="#p" />
<use x="140" y="280" xlink:href="#p" />
<use x="168" y="280" xlink:href="#p" />
<use x="224" y="280" xlink:href="#p" />
<use x="280" y="280" xlink:href="#p" />
<use x="364" y="280" xlink:href="#p" />
<use x="392" y="280" xlink:href="#p" />
<use x="448" y="280" xlink:href="#p" />
<use x="476" y="280" xlink:href="#p" />
<use x="504" y="280" xlink:href="#p" />
<use x="644" y="280" xlink:href="#p" />
<use x="672" y="280" xlink:href="#p" />
<use x="700" y="280" xlink:href="#p" />
<use x="784" y="280" xlink:href="#p" />
<use x="812" y="280" xlink:href="#p" />
<use x="840" y="280" xlink:href="#p" />
<use x="84" y="308" xlink:href="#p" />
<use x="196" y="308" xlink:href="#p" />
<use x="364" y="308" xlink:href="#p" />
<use x="392" y="308" xlink:href="#p" />
<use x="448" y="308" xlink:href="#p" />
<use x="504" y="308" xlink:href="#p" />
<use x="560" y="308" xlink:href="#p" />
<use x="644" y="308" xlink:href="#p" />
<use x="672" y="308" xlink:href="#p" />
<use x="840" y="308" xlink:href="#p" />
<use x="112" y="336" xlink:href="#p" />
<use x="168" y="336" xlink:href="#p" />
<use x="224" y="336" xlink:href="#p" />
<use x="252" y="336" xlink:href="#p" />
<use x="280" y="336" xlink:href="#p" />
<use x="308" y="336" xlink:href="#p" />
<use x="364" y="336" xlink:href="#p" />
<use x="392" y="336" xlink:href="#p" />
<use x="420" y="336" xlink:href="#p" />
<use x="448" y="336" xlink:href="#p" />
<use x="476" y="336" xlink:href="#p" />
<use x="504" y="336" xlink:href="#p" />
<use x="560" y="336" xlink:href="#p" />
<use x="588" y="336" xlink:href="#p" />
<use x="644" y="336" xlink:href="#p" />
<use x="672" y="336" xlink:href="#p" />
<use x="700" y="336" xlink:href="#p" />
<use x="84" y="364" xlink:href="#p" />
<use x="140" y="364" xlink:href="#p" />
<use x="196" y="364" xlink:href="#p" />
<use x="252" y="364" xlink:href="#p" />
<use x="308" y="364" xlink:href="#p" />
<use x="364" y="364" xlink:href="#p" />
<use x="392" y="364" xlink:href="#p" />
<use x="420" y="364" xlink:href="#p" />
<use x="476" y="364" xlink:href="#p" />
<use x="532" y="364" xlink:href="#p" />
<use x="616" y="364" xlink:href="#p" />
<use x="644" y="364" xlink:href="#p" />
<use x="672" y="364" xlink:href="#p" />
<use x="700" y="364" xlink:href="#p" />
<use x="728" y="364" xlink:href="#p" />
<use x="812" y="364" xlink:href="#p" />
<use x="168" y="392" xlink:href="#p" />
<use x="196" y="392" xlink:href="#p" />
<use x="224" y="392" xlink:href="#p" />
<use x="280" y="392" xlink:href="#p" />
<use x="336" y="392" xlink:href="#p" />
<use x="364" y="392" xlink:href="#p" />
<use x="420" y="392" xlink:href="#p" />
<use x="504" y="392" xlink:href="#p" />
<use x="532" y="392" xlink:href="#p" />
<use x="560" y="392" xlink:href="#p" />
<use x="644" y="392" xlink:href="#p" />
<use x="700" y="392" xlink:href="#p" />
<use x="812" y="392" xlink:href="#p" />
<use x="840" y="392" xlink:href="#p" />
<use x="56" y="420" xlink:href="#p" />
<use x="112" y="420" xlink:href="#p" />
<use x="140" y="420" xlink:href="#p" />
<use x="168" y="420" xlink:href="#p" />
<use x="252" y="420" xlink:href="#p" />
<use x="280" y="420" xlink:href="#p" />
<use x="364" y="420" xlink:href="#p" />
<use x="476" y="420" xlink:href="#p" />
<use x="504" y="420" xlink:href="#p" />
<use x="532" y="420" xlink:href="#p" />
<use x="560" y="420" xlink:href="#p" />
<use x="588" y="420" xlink:href="#p" />
<use x="616" y="420" xlink:href="#p" />
<use x="644" y="420" xlink:href="#p" />
<use x="672" y="420" xlink:href="#p" />
<use x="728" y="420" xlink:href="#p" />
<use x="756" y="420" xlink:href="#p" />
<use x="812" y="420" xlink:href="#p" />
<use x="840" y="420" xlink:href="#p" />
<use x="196" y="448" xlink:href="#p" />
<use x="224" y="448" xlink:href="#p" />
<use x="252" y="448" xlink:href="#p" />
<use x="280" y="448" xlink:href="#p" />
<use x="308" y="448" xlink:href="#p" />
<use x="336" y="448" xlink:href="#p" />
<use x="364" y="448" xlink:href="#p" />
<use x="392" y="448" xlink:href="#p" />
<use x="420" y="448" xlink:href="#p" />
<use x="504" y="448" xlink:href="#p" />
<use x="616" y="448" xlink:href="#p" />
<use x="644" y="448" xlink:href="#p" />
<use x="700" y="448" xlink:href="#p" />
<use x="812" y="448" xlink:href="#p" />
<use x="56" y="476" xlink:href="#p" />
<use x="140" y="476" xlink:href="#p" />
<use x="168" y="476" xlink:href="#p" />
<use x="364" y="476" xlink:href="#p" />
<use x="392" y="476" xlink:href="#p" />
<use x="448" y="476" xlink:href="#p" />
<use x="504" y="476" xlink:href="#p" />
<use x="560" y="476" xlink:href="#p" />
<use x="588" y="476" xlink:href="#p" />
<use x="616" y="476" xlink:href="#p" />
<use x="644" y="476" xlink:href="#p" />
<use x="728" y="476" xlink:href="#p" />
<use x="756" y="476" xlink:href="#p" />
<use x="56" y="504" xlink:href="#p" />
<use x="112" y="504" xlink:href="#p" />
<use x="140" y="504" xlink:href="#p" />
<use x="196" y="504" xlink:href="#p" />
<use x="224" y="504" xlink:href="#p" />
<use x="252" y="504" xlink:href="#p" />
<use x="308" y="504" xlink:href="#p" />
<use x="476" y="504" xlink:href="#p" />
<use x="504" y="504" xlink:href="#p" />
<use x="532" y="504" xlink:href="#p" />
<use x="644" y="504" xlink:href="#p" />
<use x="728" y="504" xlink:href="#p" />
<use x="756" y="504" xlink:href="#p" />
<use x="784" y="504" xlink:href="#p" />
<use x="56" y="532" xlink:href="#p" />
<use x="168" y="532" xlink:href="#p" />
<use x="196" y="532" xlink:href="#p" />
<use x="280" y="532" xlink:href="#p" />
<use x="308" y="532" xlink:href="#p" />
<use x="364" y="532" xlink:href="#p" />
<use x="392" y="532" xlink:href="#p" />
<use x="476" y="532" xlink:href="#p" />
<use x="560" y="532" xlink:href="#p" />
<use x="616" y="532" xlink:href="#p" />
<use x="700" y="532" xlink:href="#p" />
<use x="728" y="532" xlink:href="#p" />
<use x="756" y="532" xlink:href="#p" />
<use x="784" y="532" xlink:href="#p" />
<use x="812" y="532" xlink:href="#p" />
<use x="840" y="532" xlink:href="#p" />
<use x="56" y="560" xlink:href="#p" />
<use x="140" y="560" xlink:href="#p" />
<use x="196" y="560" xlink:href="#p" />
<use x="224" y="560" xlink:href="#p" />
<use x="252" y="560" xlink:href="#p" />
<use x="308" y="560" xlink:href="#p" />
<use x="336" y="560" xlink:href="#p" />
<use x="392" y="560" xlink:href="#p" />
<use x="476" y="560" xlink:href="#p" />
<use x="504" y="560" xlink:href="#p" />
<use x="560" y="560" xlink:href="#p" />
<use x="672" y="560" xlink:href="#p" />
<use x="756" y="560" xlink:href="#p" />
<use x="56" y="588" xlink:href="#p" />
<use x="112" y="588" xlink:href="#p" />
<use x="140" y="588" xlink:href="#p" />
<use x="168" y="588" xlink:href="#p" />
<use x="308" y="588" xlink:href="#p" />
<use x="336" y="588" xlink:href="#p" />
<use x="364" y="588" xlink:href="#p" />
<use x="504" y="588" xlink:href="#p" />
<use x="560" y="588" xlink:href="#p" />
<use x="588" y="588" xlink:href="#p" />
<use x="616" y="588" xlink:href="#p" />
<use x="672" y="588" xlink:href="#p" />
<use x="700" y="588" xlink:href="#p" />
<use x="728" y="588" xlink:href="#p" />
<use x="756" y="588" xlink:href="#p" />
<use x="56" y="616" xlink:href="#p" />
<use x="140" y="616" xlink:href="#p" />
<use x="196" y="616" xlink:href="#p" />
<use x="224" y="616" xlink:href="#p" />
<use x="252" y="616" xlink:href="#p" />
<use x="280" y="616" xlink:href="#p" />
<use x="336" y="616" xlink:href="#p" />
<use x="364" y="616" xlink:href="#p" />
<use x="392" y="616" xlink:href="#p" />
<use x="476" y="616" xlink:href="#p" />
<use x="560" y="616" xlink:href="#p" />
<use x="616" y="616" xlink:href="#p" />
<use x="644" y="616" xlink:href="#p" />
<use x="672" y="616" xlink:href="#p" />
<use x="700" y="616" xlink:href="#p" />
<use x="728" y="616" xlink:href="#p" />
<use x="784" y="616" xlink:href="#p" />
<use x="840" y="616" xlink:href="#p" />
<use x="280" y="644" xlink:href="#p" />
<use x="336" y="644" xlink:href="#p" />
<use x="364" y="644" xlink:href="#p" />
<use x="392" y="644" xlink:href="#p" />
<use x="420" y="644" xlink:href="#p" />
<use x="448" y="644" xlink:href="#p" />
<use x="532" y="644" xlink:href="#p" />
<use x="560" y="644" xlink:href="#p" />
<use x="588" y="644" xlink:href="#p" />
<use x="616" y="644" xlink:href="#p" />
<use x="728" y="644" xlink:href="#p" />
<use x="756" y="644" xlink:href="#p" />
<use x="812" y="644" xlink:href="#p" />
<use x="840" y="644" xlink:href="#p" />
<use x="56" y="672" xlink:href="#p" />
<use x="84" y="672" xlink:href="#p" />
<use x="112" y="672" xlink:href="#p" />
<use x="140" y="672" xlink:href="#p" />
<use x="168" y="672" xlink:href="#p" />
<use x="196" y="672" xlink:href="#p" />
<use x="224" y="672" xlink:href="#p" />
<use x="336" y="672" xlink:href="#p" />
<use x="392" y="672" xlink:href="#p" />
<use x="448" y="672" xlink:href="#p" />
<use x="560" y="672" xlink:href="#p" />
<use x="588" y="672" xlink:href="#p" />
<use x="616" y="672" xlink:href="#p" />
<use x="672" y="672" xlink:href="#p" />
<use x="728" y="672" xlink:href="#p" />
<use x="56" y="700" xlink:href="#p" />
<use x="224" y="700" xlink:href="#p" />
<use x="308" y="700" xlink:href="#p" />
<use x="364" y="700" xlink:href="#p" />
<use x="420" y="700" xlink:href="#p" />
<use x="448" y="700" xlink:href="#p" />
<use x="532" y="700" xlink:href="#p" />
<use x="560" y="700" xlink:href="#p" />
<use x="588" y="700" xlink:href="#p" />
<use x="616" y="700" xlink:href="#p" />
<use x="728" y="700" xlink:href="#p" />
<use x="756" y="700" xlink:href="#p" />
<use x="56" y="728" xlink:href="#p" />
<use x="112" y="728" xlink:href="#p" />
<use x="140" y="728" xlink:href="#p" />
<use x="168" y="728" xlink:href="#p" />
<use x="224" y="728" xlink:href="#p" />
<use x="280" y="728" xlink:href="#p" />
<use x="308" y="728" xlink:href="#p" />
<use x="476" y="728" xlink:href="#p" />
<use x="532" y="728" xlink:href="#p" />
<use x="616" y="728" xlink:href="#p" />
<use x="644" y="728" xlink:href="#p" />
<use x="672" y="728" xlink:href="#p" />
<use x="700" y="728" xlink:href="#p" />
<use x="728" y="728" xlink:href="#p" />
<use x="756" y="728" xlink:href="#p" />
<use x="784" y="728" xlink:href="#p" />
<use x="840" y="728" xlink:href="#p" />
<use x="56" y="756" xlink:href="#p" />
<use x="112" y="756" xlink:href="#p" />
<use x="140" y="756" xlink:href="#p" />
<use x="168" y="756" xlink:href="#p" />
<use x="224" y="756" xlink:href="#p" />
<use x="280" y="756" xlink:href="#p" />
<use x="308" y="756" xlink:href="#p" />
<use x="336" y="756" xlink:href="#p" />
<use x="364" y="756" xlink:href="#p" />
<use x="420" y="756" xlink:href="#p" />
<use x="448" y="756" xlink:href="#p" />
<use x="560" y="756" xlink:href="#p" />
<use x="588" y="756" xlink:href="#p" />
<use x="616" y="756" xlink:href="#p" />
<use x="644" y="756" xlink:href="#p" />
<use x="700" y="756" xlink:href="#p" />
<use x="812" y="756" xlink:href="#p" />
<use x="56" y="784" xlink:href="#p" />
<use x="112" y="784" xlink:href="#p" />
<use x="140" y="784" xlink:href="#p" />
<use x="168" y="784" xlink:href="#p" />
<use x="224" y="784" xlink:href="#p" />
<use x="280" y="784" xlink:href="#p" />
<use x="308" y="784" xlink:href="#p" />
<use x="364" y="784" xlink:href="#p" />
<use x="392" y="784" xlink:href="#p" />
<use x="420" y="784" xlink:href="#p" />
<use x="532" y="784" xlink:href="#p" />
<use x="560" y="784" xlink:href="#p" />
<use x="588" y="784" xlink:href="#p" />
<use x="616" y="784" xlink:href="#p" />
<use x="644" y="784" xlink:href="#p" />
<use x="672" y="784" xlink:href="#p" />
<use x="700" y="784" xlink:href="#p" />
<use x="728" y="784" xlink:href="#p" />
<use x="784" y="784" xlink:href="#p" />
<use x="812" y="784" xlink:href="#p" />
<use x="56" y="812" xlink:href="#p" />
<use x="224" y="812" xlink:href="#p" />
<use x="308" y="812" xlink:href="#p" />
<use x="392" y="812" xlink:href="#p" />
<use x="504" y="812" xlink:href="#p" />
<use x="532" y="812" xlink:href="#p" />
<use x="588" y="812" xlink:href="#p" />
<use x="616" y="812" xlink:href="#p" />
<use x="644" y="812" xlink:href="#p" />
<use x="728" y="812" xlink:href="#p" />
<use x="812" y="812" xlink:href="#p" />
<use x="56" y="840" xlink:href="#p" />
<use x="84" y="840" xlink:href="#p" />
<use x="112" y="840" xlink:href="#p" />
<use x="140" y="840" xlink:href="#p" />
<use x="168" y="840" xlink:href="#p" />
<use x="196" y="840" xlink:href="#p" />
<use x="224" y="840" xlink:href="#p" />
<use x="336" y="840" xlink:href="#p" />
<use x="392" y="840" xlink:href="#p" />
<use x="448" y="840" xlink:href="#p" />
<use x="532" y="840" xlink:href="#p" />
<use x="560" y="840" xlink:href="#p" />
<use x="644" y="840" xlink:href="#p" />
<use x="728" y="840" xlink:href="#p" />
</g>
</svg>