<?xml version="1.0" encoding="iso-8859-1"?>
<!-- Generator: Adobe Illustrator 19.0.0, SVG Export Plug-In . SVG Version: 6.00 Build 0)  -->
<svg version="1.1" id="Layer_1" xmlns="http://www.w3.org/2000/svg" xmlns:xlink="http://www.w3.org/1999/xlink" x="0px" y="0px"
	 viewBox="0 0 512 512" style="enable-background:new 0 0 512 512;" xml:space="preserve">
<path style="fill:#53565C;" d="M428.522,111.304H317.217c-9.217,0-16.696-7.473-16.696-16.696V16.696C300.522,7.473,308,0,317.217,0
	h111.304c9.217,0,16.696,7.473,16.696,16.696v77.913C445.217,103.831,437.739,111.304,428.522,111.304z"/>
<path style="fill:#E6EEFF;" d="M461.913,512H50.087C22.468,512,0,489.532,0,461.913V128c0-27.619,22.468-50.087,50.087-50.087
	h411.826C489.532,77.913,512,100.381,512,128v333.913C512,489.532,489.532,512,461.913,512z"/>
<path style="fill:#DAE2F2;" d="M461.913,77.913H256V512h205.913C489.532,512,512,489.532,512,461.913V128
	C512,100.381,489.532,77.913,461.913,77.913z"/>
<path style="fill:#4DA6FF;" d="M0,178.087v233.739h512V178.087H0z"/>
<rect x="256" y="178.087" style="fill:#4596E6;" width="256" height="233.739"/>
<path style="fill:#C4CAD9;" d="M256,445.217c-82.858,0-150.261-67.408-150.261-150.261S173.142,144.696,256,144.696
	s150.261,67.408,150.261,150.261S338.858,445.217,256,445.217z"/>
<path style="fill:#B8BFCC;" d="M406.261,294.957c0-82.853-67.403-150.261-150.261-150.261v300.522
	C338.858,445.217,406.261,377.809,406.261,294.957z"/>
<path style="fill:#5C5F66;" d="M256,178.087c-64.445,0-116.87,52.429-116.87,116.87s52.424,116.87,116.87,116.87
	s116.87-52.429,116.87-116.87S320.445,178.087,256,178.087z"/>
<path style="fill:#53565C;" d="M372.87,294.957c0-64.441-52.424-116.87-116.87-116.87v233.739
	C320.445,411.826,372.87,359.397,372.87,294.957z"/>
<path style="fill:#5AF1FF;" d="M256,378.435c-46.032,0-83.478-37.446-83.478-83.478s37.446-83.478,83.478-83.478
	s83.478,37.446,83.478,83.478S302.032,378.435,256,378.435z"/>
<circle style="fill:#E55639;" cx="116.87" cy="144.696" r="16.696"/>
<path style="fill:#51DAE6;" d="M339.478,294.957c0-46.032-37.446-83.478-83.478-83.478v166.956
	C302.032,378.435,339.478,340.989,339.478,294.957z"/>
<path style="fill:#5C5F66;" d="M256,345.043c-27.619,0-50.087-22.468-50.087-50.087S228.381,244.87,256,244.87
	s50.087,22.468,50.087,50.087S283.619,345.043,256,345.043z"/>
<path style="fill:#53565C;" d="M306.087,294.957c0-27.619-22.468-50.087-50.087-50.087v100.174
	C283.619,345.043,306.087,322.576,306.087,294.957z"/>
<g>
</g>
<g>
</g>
<g>
</g>
<g>
</g>
<g>
</g>
<g>
</g>
<g>
</g>
<g>
</g>
<g>
</g>
<g>
</g>
<g>
</g>
<g>
</g>
<g>
</g>
<g>
</g>
<g>
</g>
</svg>
