<?xml version="1.0" encoding="iso-8859-1"?>
<!-- Generator: Adobe Illustrator 19.0.0, SVG Export Plug-In . SVG Version: 6.00 Build 0)  -->
<svg version="1.1" id="Layer_1" xmlns="http://www.w3.org/2000/svg" xmlns:xlink="http://www.w3.org/1999/xlink" x="0px" y="0px"
	 viewBox="0 0 511.994 511.994" style="enable-background:new 0 0 511.994 511.994;" xml:space="preserve">
<path style="fill:#434A54;" d="M426.646,106.66c-5.891,0-10.656,4.781-10.656,10.671v63.999h21.328v-63.999
	C437.318,111.441,432.537,106.66,426.646,106.66z"/>
<polygon style="fill:#E6E9ED;" points="351.992,170.658 351.992,202.657 373.319,405.332 479.988,405.332 501.316,202.657 
	501.316,170.658 "/>
<rect x="341.324" y="170.656" style="fill:#ED5564;" width="170.67" height="31.999"/>
<path style="fill:#F4BE8E;" d="M319.992,213.329c0,58.912-72.748,106.661-149.34,106.661c-76.576,0-149.325-47.749-149.325-106.661
	c0-58.904,72.749-106.669,149.325-106.669C247.244,106.66,319.992,154.425,319.992,213.329z"/>
<g>
	<path style="fill:#EAAD7A;" d="M95.607,181.33c0,5.891-4.781,10.672-10.672,10.672s-10.656-4.781-10.656-10.672
		s4.766-10.672,10.656-10.672S95.607,175.439,95.607,181.33z"/>
	<path style="fill:#EAAD7A;" d="M180.933,181.33c0,5.891-4.781,10.672-10.656,10.672c-5.906,0-10.672-4.781-10.672-10.672
		s4.766-10.672,10.672-10.672C176.152,170.658,180.933,175.439,180.933,181.33z"/>
	<path style="fill:#EAAD7A;" d="M266.275,181.33c0,5.891-4.781,10.672-10.672,10.672c-5.891,0-10.672-4.781-10.672-10.672
		s4.781-10.672,10.672-10.672C261.494,170.658,266.275,175.439,266.275,181.33z"/>
	<path style="fill:#EAAD7A;" d="M138.653,138.659c0,5.891-4.781,10.672-10.656,10.672c-5.906,0-10.672-4.781-10.672-10.672
		s4.766-10.656,10.672-10.656C133.872,128.003,138.653,132.768,138.653,138.659z"/>
	<path style="fill:#EAAD7A;" d="M223.994,138.659c0,5.891-4.78,10.672-10.671,10.672s-10.672-4.781-10.672-10.672
		s4.781-10.656,10.672-10.656S223.994,132.768,223.994,138.659z"/>
</g>
<g>
	<rect x="21.327" y="341.336" style="fill:#F4BE8E;" width="298.67" height="63.998"/>
	<rect x="21.327" y="255.996" style="fill:#F4BE8E;" width="298.67" height="63.99"/>
</g>
<path style="fill:#965353;" d="M309.32,309.335H31.999c-11.766,0-21.343,9.562-21.343,21.312c0,11.781,9.577,21.343,21.343,21.343
	H309.32c11.766,0,21.328-9.562,21.328-21.343C330.648,318.896,321.086,309.335,309.32,309.335z"/>
<polygon style="fill:#FFCE54;" points="170.277,383.989 53.327,309.335 287.212,309.335 "/>
<path style="fill:#965353;" d="M309.32,224.001H31.999c-11.766,0-21.343,9.562-21.343,21.327c0,11.766,9.577,21.327,21.343,21.327
	H309.32c11.766,0,21.328-9.562,21.328-21.327C330.648,233.563,321.086,224.001,309.32,224.001z"/>
<polygon style="fill:#FFCE54;" points="170.277,298.647 53.327,224.001 287.212,224.001 "/>
<path style="fill:#434A54;" d="M501.316,383.989H10.656C4.765,383.989,0,388.77,0,394.645c0,5.906,4.766,10.687,10.656,10.687
	h490.66c5.891,0,10.672-4.78,10.672-10.687C511.988,388.77,507.207,383.989,501.316,383.989z"/>
<g>
</g>
<g>
</g>
<g>
</g>
<g>
</g>
<g>
</g>
<g>
</g>
<g>
</g>
<g>
</g>
<g>
</g>
<g>
</g>
<g>
</g>
<g>
</g>
<g>
</g>
<g>
</g>
<g>
</g>
</svg>
