<?xml version="1.0" encoding="iso-8859-1"?>
<!-- Generator: Adobe Illustrator 19.0.0, SVG Export Plug-In . SVG Version: 6.00 Build 0)  -->
<svg version="1.1" id="Layer_1" xmlns="http://www.w3.org/2000/svg" xmlns:xlink="http://www.w3.org/1999/xlink" x="0px" y="0px"
	 viewBox="0 0 512 512" style="enable-background:new 0 0 512 512;" xml:space="preserve">
<path style="fill:#66BF00;" d="M109.635,105.209c-2.41,0.86-4.322,2.772-5.182,5.182c-8.76,24.539-3.33,53.007,16.318,72.656
	c19.648,19.648,48.116,25.078,72.656,16.318c2.41-0.86,4.322-2.772,5.182-5.182c8.76-24.539,3.33-53.007-16.318-72.656
	C162.644,101.879,134.175,96.449,109.635,105.209z"/>
<g>
	<path style="fill:#58AB23;" d="M128.405,174.348c-18.846-18.847-24.602-45.804-17.311-69.629c-0.486,0.161-0.973,0.319-1.457,0.492
		c-2.41,0.86-4.322,2.772-5.182,5.182c-8.76,24.539-3.33,53.007,16.318,72.656c19.648,19.648,48.116,25.078,72.656,16.318
		c2.41-0.86,4.322-2.772,5.182-5.182c0.358-1.002,0.683-2.013,0.993-3.027C175.401,199.196,147.666,193.609,128.405,174.348z"/>
	<path style="fill:#58AB23;" d="M244.686,232.07L115.921,103.305c-2.117,0.537-4.216,1.166-6.285,1.904
		c-2.41,0.86-4.322,2.772-5.182,5.182c-0.542,1.517-1.028,3.049-1.461,4.593l129.388,129.389c1.699,1.699,3.925,2.548,6.152,2.548
		c2.227,0,4.453-0.849,6.152-2.548C248.084,240.976,248.084,235.468,244.686,232.07z"/>
</g>
<path style="fill:#66BF00;" d="M242.198,0.822c-2.313-1.096-5.016-1.096-7.329,0c-23.546,11.158-39.837,35.127-39.837,62.914
	s16.291,51.756,39.837,62.914c2.313,1.096,5.016,1.096,7.329,0c23.546-11.158,39.837-35.127,39.837-62.914
	S265.744,11.98,242.198,0.822z"/>
<g>
	<path style="fill:#58AB23;" d="M242.198,112.566c-2.313,1.096-5.016,1.096-7.329,0c-21.531-10.203-36.987-31.121-39.476-55.873
		c-0.233,2.316-0.361,4.664-0.361,7.042c0,27.787,16.291,51.756,39.837,62.914c2.313,1.096,5.016,1.096,7.329,0
		c23.546-11.158,39.837-35.127,39.837-62.914c0-2.378-0.128-4.725-0.361-7.042C279.185,81.446,263.729,102.364,242.198,112.566z"/>
	<path style="fill:#58AB23;" d="M242.198,0.822c-2.313-1.096-5.016-1.096-7.329,0c-1.455,0.689-2.883,1.429-4.281,2.214v292.77
		c0,5.151,4.646,9.26,9.756,8.635c4.309-0.526,7.643-4.292,7.643-8.635V3.919C246.112,2.803,244.184,1.763,242.198,0.822z"/>
</g>
<path style="fill:#66BF00;" d="M367.432,105.209c2.41,0.86,4.322,2.772,5.182,5.182c8.76,24.539,3.33,53.007-16.318,72.656
	c-19.648,19.648-48.116,25.078-72.656,16.318c-2.41-0.86-4.322-2.772-5.182-5.182c-8.76-24.539-3.33-53.007,16.318-72.656
	C314.425,101.879,342.893,96.449,367.432,105.209z"/>
<g>
	<path style="fill:#58AB23;" d="M348.664,174.348c18.846-18.847,24.602-45.804,17.311-69.629c0.486,0.161,0.973,0.319,1.457,0.492
		c2.41,0.86,4.322,2.772,5.182,5.182c8.76,24.539,3.33,53.007-16.318,72.656c-19.648,19.648-48.116,25.078-72.656,16.318
		c-2.41-0.86-4.322-2.772-5.182-5.182c-0.358-1.002-0.683-2.013-0.993-3.027C301.667,199.196,329.402,193.609,348.664,174.348z"/>
	<path style="fill:#58AB23;" d="M372.614,110.391c-0.86-2.41-2.772-4.322-5.182-5.182c-2.07-0.738-4.167-1.368-6.285-1.904
		L232.382,232.07c-3.399,3.397-3.399,8.906,0,12.303c1.699,1.699,3.925,2.548,6.152,2.548c2.227,0,4.453-0.849,6.152-2.548
		l129.388-129.389C373.642,113.441,373.156,111.908,372.614,110.391z"/>
</g>
<path style="fill:#B9873C;" d="M352.705,391.509c0-62.465-50.637-113.103-113.103-113.103S126.5,329.044,126.5,391.509
	c0,18.83,4.608,36.583,12.749,52.201h200.708C348.097,428.092,352.705,410.339,352.705,391.509z"/>
<path style="fill:#A3682D;" d="M274.403,426.31c-60.107,0-111.837-35.857-134.974-87.346c-8.253,15.701-12.93,33.575-12.93,52.545
	c0,18.83,4.608,36.583,12.749,52.201h200.708c6.263-12.015,10.424-25.298,12.015-39.36
	C329.419,418.271,302.852,426.31,274.403,426.31z"/>
<path style="fill:#FFE5BA;" d="M88.704,385.832c6.93-6.307,16.351-3.955,24.346,0.928c14.899,9.099,67.324,42.716,67.324,42.716
	l67.671-6.152l13.423-13.423c2.303-2.303,1.361-6.225-1.742-7.217c-9.017-2.882-25.641-8.112-41.232-12.564
	c-7.301-2.085-12.585-8.723-12.454-16.314c0.164-9.53,7.977-17.169,17.529-17.097c0,0,79.179,15.808,113.522,21.634
	c10.687,1.813,20.541,6.92,28.206,14.586l61.156,61.156c3.397,3.397,3.397,8.907,0,12.304l-43.064,43.064
	c-3.397,3.397-8.907,3.397-12.304,0l-30.76-30.76l-151.493-6.06c-1.512-0.061-2.981-0.514-4.263-1.316L88.095,411.02
	C81.103,404.028,81.305,392.565,88.704,385.832z"/>
<path style="fill:#FFD686;" d="M190.664,455.129L84.403,391.888c-2.704,6.341-1.48,13.958,3.693,19.132l96.474,60.297
	c1.282,0.802,2.753,1.255,4.263,1.316l151.493,6.06l30.76,30.76c3.397,3.397,8.907,3.397,12.304,0l12.471-12.471l-42.069-37.502
	L190.664,455.129z"/>
<g>
</g>
<g>
</g>
<g>
</g>
<g>
</g>
<g>
</g>
<g>
</g>
<g>
</g>
<g>
</g>
<g>
</g>
<g>
</g>
<g>
</g>
<g>
</g>
<g>
</g>
<g>
</g>
<g>
</g>
</svg>
