<?xml version="1.0" encoding="iso-8859-1"?>
<!-- Generator: Adobe Illustrator 19.0.0, SVG Export Plug-In . SVG Version: 6.00 Build 0)  -->
<svg version="1.1" id="Layer_1" xmlns="http://www.w3.org/2000/svg" xmlns:xlink="http://www.w3.org/1999/xlink" x="0px" y="0px"
	 viewBox="0 0 392.598 392.598" style="enable-background:new 0 0 392.598 392.598;" xml:space="preserve">
<path style="fill:#FFFFFF;" d="M359.822,21.786H32.711c-6.012,0-10.925,4.848-10.925,10.925v131.491
	c0,6.012,4.848,10.925,10.925,10.925h327.111c6.012,0,10.925-4.848,10.925-10.925V32.711
	C370.747,26.699,365.834,21.786,359.822,21.786z"/>
<path style="fill:#194F82;" d="M359.822,0H32.711C14.675,0,0,14.675,0,32.711v131.491c0,17.972,14.675,32.711,32.711,32.711h327.111
	c18.036,0,32.711-14.675,32.711-32.711V32.711C392.533,14.675,377.859,0,359.822,0z M370.747,164.202
	c0,6.012-4.848,10.925-10.925,10.925H32.711c-6.012,0-10.925-4.848-10.925-10.925V32.711c0-6.012,4.848-10.925,10.925-10.925
	h327.111c6.012,0,10.925,4.848,10.925,10.925V164.202L370.747,164.202z"/>
<rect x="43.572" y="43.572" style="fill:#56ACE0;" width="305.325" height="109.64"/>
<path style="fill:#FFFFFF;" d="M123.539,326.917c0-6.012-4.848-10.925-10.925-10.925H32.711c-6.012,0-10.925,4.848-10.925,10.925
	v43.83h101.754V326.917z"/>
<path style="fill:#56ACE0;" d="M247.143,326.917c0-6.012-4.848-10.925-10.925-10.925h-79.903c-6.012,0-10.925,4.848-10.925,10.925
	v43.83h101.754V326.917L247.143,326.917z"/>
<g>
	<path style="fill:#FFC10D;" d="M370.747,326.917c0-6.012-4.848-10.925-10.925-10.925h-79.968c-6.012,0-10.925,4.848-10.925,10.925
		v43.83h101.754v-43.83H370.747z"/>
	<path style="fill:#FFC10D;" d="M72.727,273.778c10.149,0,18.295-8.21,18.295-18.295s-8.21-18.295-18.295-18.295
		s-18.295,8.21-18.295,18.295C54.303,265.503,62.578,273.778,72.727,273.778z"/>
	<path style="fill:#FFC10D;" d="M196.267,273.778c10.15,0,18.295-8.21,18.295-18.295s-8.21-18.295-18.295-18.295
		c-10.085,0-18.295,8.21-18.295,18.295C177.972,265.503,186.117,273.778,196.267,273.778z"/>
</g>
<path style="fill:#56ACE0;" d="M319.806,273.778c10.149,0,18.295-8.21,18.295-18.295s-8.21-18.295-18.295-18.295
	s-18.295,8.21-18.295,18.295C301.511,265.503,309.721,273.778,319.806,273.778z"/>
<g>
	<path style="fill:#194F82;" d="M359.822,294.271h-29.996c17.325-4.461,30.125-20.17,30.125-38.853
		c0-22.109-18.036-40.21-40.21-40.21c-22.109,0-40.21,18.036-40.21,40.21c0,18.683,12.8,34.392,30.125,38.853h-29.996
		c-8.339,0-15.968,3.168-21.786,8.404c-5.818-5.172-13.446-8.404-21.786-8.404h-29.996c17.325-4.461,30.125-20.17,30.125-38.853
		c0-22.109-18.036-40.21-40.21-40.21s-40.21,18.036-40.21,40.21c0,18.683,12.8,34.392,30.125,38.853h-29.737
		c-8.339,0-15.968,3.168-21.786,8.404c-5.818-5.172-13.446-8.404-21.786-8.404H82.683c17.325-4.461,30.125-20.17,30.125-38.853
		c0-22.109-18.036-40.21-40.21-40.21c-22.109,0-40.21,18.036-40.21,40.21c0,18.683,12.8,34.392,30.125,38.853H32.711
		C14.675,294.271,0,308.945,0,326.982v54.691c0,6.012,4.848,10.925,10.925,10.925h370.747c6.012,0,10.925-4.848,10.925-10.925
		v-54.691C392.533,308.945,377.859,294.271,359.822,294.271z M268.994,326.917c0-6.012,4.849-10.925,10.925-10.925h79.903
		c6.012,0,10.925,4.848,10.925,10.925v43.83H268.994V326.917z M319.806,237.059c10.149,0,18.295,8.21,18.295,18.295
		c0,10.085-8.21,18.295-18.295,18.295s-18.295-8.21-18.295-18.295C301.511,245.269,309.721,237.059,319.806,237.059z
		 M145.325,326.917c0-6.012,4.848-10.925,10.925-10.925h79.968c6.012,0,10.925,4.848,10.925,10.925v43.83H145.325V326.917z
		 M196.267,237.059c10.15,0,18.295,8.21,18.295,18.295c0,10.085-8.21,18.295-18.295,18.295c-10.085,0-18.295-8.21-18.295-18.295
		S186.117,237.059,196.267,237.059z M21.786,326.917c0-6.012,4.848-10.925,10.925-10.925h79.968c6.012,0,10.925,4.848,10.925,10.925
		v43.83H21.786V326.917z M72.727,237.059c10.149,0,18.295,8.21,18.295,18.295c0,10.085-8.21,18.295-18.295,18.295
		s-18.295-8.21-18.295-18.295C54.303,245.269,62.578,237.059,72.727,237.059z"/>
	<path style="fill:#194F82;" d="M331.442,39.628l-71.37,37.107l-38.594-6.917c-3.038-0.517-6.077,0.259-8.469,2.069l-52.364,39.887
		l-47.774-9.568c-2.78-0.517-5.624,0-8.016,1.487l-54.626,34.78c-5.107,3.232-7.046,10.279-3.297,15.063
		c6.206,7.952,13.188,4.461,15.063,3.297l50.941-32.453l48.226,9.762c3.103,0.646,6.271-0.065,8.727-2.004l52.493-39.952
		l37.495,6.723c2.392,0.453,4.784,0.065,6.982-1.099l74.731-38.788c5.301-2.78,7.434-9.374,4.655-14.675
		C343.337,38.917,336.743,36.848,331.442,39.628z"/>
</g>
<g>
</g>
<g>
</g>
<g>
</g>
<g>
</g>
<g>
</g>
<g>
</g>
<g>
</g>
<g>
</g>
<g>
</g>
<g>
</g>
<g>
</g>
<g>
</g>
<g>
</g>
<g>
</g>
<g>
</g>
</svg>
