<?xml version="1.0" encoding="UTF-8"?>
<svg xmlns="http://www.w3.org/2000/svg" id="Grupo_58" data-name="Grupo 58" width="162.19" height="45" viewBox="0 0 162.19 45">
  <path id="Trazado_109" data-name="Trazado 109" d="M211.44,1351.3a4.684,4.684,0,0,1,.63-.743,3.919,3.919,0,0,1,.807-.593,3.736,3.736,0,0,1,2.2-.4,2.055,2.055,0,0,1,1.749,1.213,2.214,2.214,0,0,1-.156,1.72,8.494,8.494,0,0,1-.935,1.521,30.2,30.2,0,0,0-2.451,4.342q-1.431,2.945-3.272,7.437t-3.04,7.68q-1.2,3.189-1.752,5.074a14.629,14.629,0,0,0-.6,2.574q-.044.688.422.177a29.9,29.9,0,0,1,2.547-2.517,16.13,16.13,0,0,1,2.93-2.043,9.027,9.027,0,0,1,1.155-.525,5.6,5.6,0,0,1,1.225-.3,4.077,4.077,0,0,1,1.266.038,3.164,3.164,0,0,1,1.163.468,3.25,3.25,0,0,1,.955,1.021,4.626,4.626,0,0,1,.532,1.315,11.247,11.247,0,0,1,.254,3.011,25.742,25.742,0,0,1-.315,3.018,14.445,14.445,0,0,0-.189,2,5.326,5.326,0,0,0,.145,1.436,4.791,4.791,0,0,0,.437,1.087,4.875,4.875,0,0,0,.694.954,1.83,1.83,0,0,0,1.114.549,4.648,4.648,0,0,0,1.7-.128,7.357,7.357,0,0,0,1.774-.643,5.047,5.047,0,0,0,1.331-1c.369-.391.6-.575.682-.549s.027.261-.172.7a8.016,8.016,0,0,1-2.353,2.909,10.421,10.421,0,0,1-3.323,1.771,5.3,5.3,0,0,1-1.642.247,3.694,3.694,0,0,1-1.592-.366,4.6,4.6,0,0,1-2.33-3.73,22.456,22.456,0,0,1-.007-4.646c.026-.425.065-.853.084-1.28a7.677,7.677,0,0,0-.033-1.28,5.058,5.058,0,0,0-.21-1.028,1.2,1.2,0,0,0-.635-.782.815.815,0,0,0-.406-.037,1.957,1.957,0,0,0-.408.109,10.643,10.643,0,0,0-3.142,1.923,19.407,19.407,0,0,0-2.554,2.679q-.688.863-1.288,1.79c-.4.617-.773,1.252-1.119,1.9-.248.466-.464.946-.673,1.431s-.406.973-.619,1.455a11.129,11.129,0,0,1-.52,1.147,1.611,1.611,0,0,1-.9.809,1.889,1.889,0,0,1-1.852-.537,3.322,3.322,0,0,1-.966-1.759,6.185,6.185,0,0,1,.1-2.271c.153-.759.386-1.511.578-2.222q.43-1.594.9-3.182t.942-3.169q1.331-4.414,2.851-8.728t3.227-8.53q.676-1.668,1.347-3.34t1.325-3.349q.209-.534.414-1.072t.407-1.075c.226-.608.433-1.259.677-1.893a8.562,8.562,0,0,1,.9-1.8" transform="translate(-152.895 -1349.533)"></path>
  <path id="Trazado_110" data-name="Trazado 110" d="M244.772,1380.575a6.139,6.139,0,0,1,1.523-.2,4.4,4.4,0,0,1,1.492.257,3.734,3.734,0,0,1,1.592,1.125,6.049,6.049,0,0,1,.972,1.705,2.3,2.3,0,0,1,.183,1.408,1.3,1.3,0,0,1-.781.854,2.124,2.124,0,0,1-.917.195,1.981,1.981,0,0,1-.9-.237,4.414,4.414,0,0,1-.677-.507,1.8,1.8,0,0,0-.729-.405,1.31,1.31,0,0,0-.5-.007,2.975,2.975,0,0,0-.49.129,12.465,12.465,0,0,0-2.67,1.328,27.579,27.579,0,0,0-2.412,1.768,20.458,20.458,0,0,0-1.619,1.465q-.821.821-1.663,1.819t-1.31,1.636a3.986,3.986,0,0,0-.554.915c-.059.185-.016.264.128.239a2.473,2.473,0,0,0,.737-.394q.521-.354,1.32-.893t1.874-1.258q1.076-.721,2.429-1.459t2.984-1.492a14.533,14.533,0,0,1,2.6-1.088,2.741,2.741,0,0,1,2.615.609,2.913,2.913,0,0,1,.725.981,3.271,3.271,0,0,1,.292,1.189,3.03,3.03,0,0,1-.267,1.337,12.085,12.085,0,0,0-.5,1.275,4.338,4.338,0,0,0-.172,1.309,4.019,4.019,0,0,0,.238,1.264,4.843,4.843,0,0,0,.5,1.048,2.357,2.357,0,0,0,.627.661,1.888,1.888,0,0,0,.815.3,3.523,3.523,0,0,0,1.071-.033,3.782,3.782,0,0,0,1.336-.554,10.762,10.762,0,0,0,1.614-1.264q.876-.81.837-.621a7.617,7.617,0,0,1-.992,1.375c-.462.575-.934,1.219-1.466,1.8a5.419,5.419,0,0,1-1.823,1.378,4.534,4.534,0,0,1-2.077.342,4.153,4.153,0,0,1-1.995-.656,5.118,5.118,0,0,1-1.173-1.088,8.767,8.767,0,0,1-.879-1.36c-.283-.529-.509-1.118-.769-1.683a5.471,5.471,0,0,0-.977-1.544,1.31,1.31,0,0,0-.714-.4,1.549,1.549,0,0,0-.86.116,8.864,8.864,0,0,0-1.281.705q-.816.515-1.98,1.358c-1.288.933-2.567,1.926-3.964,2.747a12.615,12.615,0,0,1-4.666,1.723,3.069,3.069,0,0,1-1.573-.109,1.975,1.975,0,0,1-1.063-1.094,4.773,4.773,0,0,1,.22-4.19,20.354,20.354,0,0,1,2.484-3.624q1.231-1.563,2.418-2.844a30.652,30.652,0,0,1,2.33-2.28q.875-.766,1.813-1.456t1.931-1.3c.6-.368,1.222-.744,1.853-1.09a16.766,16.766,0,0,1,1.94-.923c.15-.057.3-.112.457-.161s.31-.095.468-.135" transform="translate(-158.458 -1355.111)"></path>
  <path id="Trazado_111" data-name="Trazado 111" d="M271.113,1381.325q.306-.112.617-.21c.206-.066.415-.126.625-.182a15.023,15.023,0,0,1,2.559-.512,4.184,4.184,0,0,1,2.5.423,2.158,2.158,0,0,1,.869.971,3.016,3.016,0,0,1,.25,1.3,1.509,1.509,0,0,1-.8,1.3,3.958,3.958,0,0,1-1.541.493c-.889.114-1.732.176-2.56.318a7.827,7.827,0,0,0-5.944,4.351,4.862,4.862,0,0,0,.047,4.808,4.371,4.371,0,0,0,1.569,1.488,5.563,5.563,0,0,0,2.086.681,7.312,7.312,0,0,0,2.183-.088,11.056,11.056,0,0,0,2.113-.622,23.526,23.526,0,0,0,3.653-1.841,29.182,29.182,0,0,0,3.317-2.392q1.164-.966,1.137-.837a10.392,10.392,0,0,1-1.248,1.348q-1.22,1.22-2.329,2.246t-2.107,1.856a17.944,17.944,0,0,1-4.844,2.949,10.181,10.181,0,0,1-5.566.66,7.025,7.025,0,0,1-4.048-2.329,6.589,6.589,0,0,1-1.624-4.365,11.373,11.373,0,0,1,1.647-5.673,14.425,14.425,0,0,1,7.432-6.138" transform="translate(-164.528 -1355.114)"></path>
  <path id="Trazado_112" data-name="Trazado 112" d="M324.414,1380.905a10.164,10.164,0,0,1,2.313-.682,3.808,3.808,0,0,1,2.265.258,2.528,2.528,0,0,1,1.026.981,3.563,3.563,0,0,1,.464,1.379,5.774,5.774,0,0,1-.27,2.586,4.459,4.459,0,0,1-1.488,2.1,21.776,21.776,0,0,1-1.914,1.3,15.439,15.439,0,0,1-2.063,1.047,7.024,7.024,0,0,1-1.712.448,9.822,9.822,0,0,1-1.773.071,2.027,2.027,0,0,0-.333,0,.606.606,0,0,0-.3.107.564.564,0,0,0-.131.141,1.569,1.569,0,0,0-.1.17,4.78,4.78,0,0,0-.485,2.538,3.533,3.533,0,0,0,1.088,2.3,3.644,3.644,0,0,0,1.668.85,5.191,5.191,0,0,0,1.912.063,12.979,12.979,0,0,0,3-.865,27.257,27.257,0,0,0,2.811-1.372,24.786,24.786,0,0,0,2.824-1.817,26.541,26.541,0,0,0,2.563-2.168,2.835,2.835,0,0,1,.632-.533c.052,0-.055.178-.321.533-.913,1.216-1.857,2.411-2.872,3.541a28.4,28.4,0,0,1-3.292,3.16,15.925,15.925,0,0,1-2.86,1.865,11.137,11.137,0,0,1-3.217,1.065,7.374,7.374,0,0,1-3.421-.246,6.914,6.914,0,0,1-2.9-1.818,7.434,7.434,0,0,1-1.563-7.056,15.123,15.123,0,0,1,3.589-6.656,13.375,13.375,0,0,1,1.967-1.721,13.189,13.189,0,0,1,2.265-1.3c.1-.044.2-.09.308-.135s.214-.092.324-.137m1.914,3.318a.485.485,0,0,0-.073-.039.467.467,0,0,0-.084-.031.855.855,0,0,0-.43,0,2.279,2.279,0,0,0-.42.144,7.8,7.8,0,0,0-1.218.641,4.653,4.653,0,0,0-1.026.9,2.189,2.189,0,0,0-.35.555.6.6,0,0,0,.042.614.673.673,0,0,0,.76.145,3.906,3.906,0,0,0,.777-.355q.364-.2.714-.428t.685-.475a3.049,3.049,0,0,0,.712-.766c.2-.324.258-.671-.088-.9" transform="translate(-174.233 -1355.073)"></path>
  <path id="Trazado_113" data-name="Trazado 113" d="M298.167,1351.3a4.683,4.683,0,0,1,.63-.743,3.918,3.918,0,0,1,.807-.593,3.736,3.736,0,0,1,2.2-.4,2.055,2.055,0,0,1,1.749,1.213,2.218,2.218,0,0,1-.157,1.72,8.5,8.5,0,0,1-.935,1.521,30.2,30.2,0,0,0-2.451,4.342q-1.432,2.945-3.272,7.437t-3.04,7.68q-1.2,3.189-1.752,5.074a14.631,14.631,0,0,0-.6,2.574q-.044.688.422.177a29.906,29.906,0,0,1,2.547-2.517,16.132,16.132,0,0,1,2.93-2.043,9.021,9.021,0,0,1,1.155-.525,5.6,5.6,0,0,1,1.225-.3,4.082,4.082,0,0,1,1.266.038,3.164,3.164,0,0,1,1.163.468,3.25,3.25,0,0,1,.955,1.021,4.622,4.622,0,0,1,.532,1.315,11.243,11.243,0,0,1,.254,3.011,25.755,25.755,0,0,1-.315,3.018,14.446,14.446,0,0,0-.189,2,5.327,5.327,0,0,0,.145,1.436,4.787,4.787,0,0,0,.437,1.087,4.876,4.876,0,0,0,.694.954,1.83,1.83,0,0,0,1.114.549,4.648,4.648,0,0,0,1.7-.128,7.356,7.356,0,0,0,1.774-.643,5.048,5.048,0,0,0,1.331-1c.369-.391.6-.575.682-.549s.027.261-.172.7a8.016,8.016,0,0,1-2.353,2.909,10.421,10.421,0,0,1-3.323,1.771,5.294,5.294,0,0,1-1.642.247,3.694,3.694,0,0,1-1.592-.366,4.6,4.6,0,0,1-2.33-3.73,22.454,22.454,0,0,1-.007-4.646c.026-.425.065-.853.084-1.28a7.687,7.687,0,0,0-.033-1.28,5,5,0,0,0-.211-1.028,1.2,1.2,0,0,0-.634-.782.815.815,0,0,0-.406-.037,1.956,1.956,0,0,0-.408.109,10.642,10.642,0,0,0-3.142,1.923,19.407,19.407,0,0,0-2.554,2.679q-.688.863-1.288,1.79c-.4.617-.773,1.252-1.119,1.9-.248.466-.464.946-.673,1.431s-.406.973-.619,1.455a11.143,11.143,0,0,1-.52,1.147,1.611,1.611,0,0,1-.9.809,1.889,1.889,0,0,1-1.852-.537,3.321,3.321,0,0,1-.966-1.759,6.183,6.183,0,0,1,.1-2.271c.153-.759.386-1.511.577-2.222q.43-1.594.9-3.182t.942-3.169q1.331-4.414,2.851-8.728t3.227-8.53q.676-1.668,1.347-3.34t1.325-3.349q.209-.534.414-1.072t.407-1.075c.226-.608.433-1.259.677-1.893a8.564,8.564,0,0,1,.9-1.8" transform="translate(-168.58 -1349.533)"></path>
  <path id="Trazado_114" data-name="Trazado 114" d="M154.2,1349.533h22.409l5.6,5.6,5.6,5.6-11.2,16.8-11.205,16.8-11.205-16.8L143,1360.734l5.6-5.6Z" transform="translate(-143 -1349.533)"></path>
</svg>
